ffmpeg started on 2025-05-02 at 14:31:14
Report written to "D:\Convert\FFMetrics\reports\ssim_report-6.txt"
Log level: 32
Command line:
ffmpeg -hide_banner -nostdin -i "G:\\\xc0\xed\xe8\xec\xe5\\\xce\xed\xe3\xee\xe8\xed\xe3\xe8\\!_35_\xcb\xe5\xf2\xee_2024\\JamClub\\\xcf\xee\xf7\xe5\xec\xf3 \xe2\xf1\xe5 \xe7\xe0\xe1\xfb\xeb\xe8 \xec\xee\xe9 \xec\xe8\xf0\\JamClub_Naze_Boku_no_Sekai_o_Dare_mo_Oboeteinai_no_ka_11_1080p_HEVC.mkv" -i "G:\\\xc0\xed\xe8\xec\xe5\\\xce\xed\xe3\xee\xe8\xed\xe3\xe8\\!_35_\xcb\xe5\xf2\xee_2024\\JamClub\\\xcf\xee\xf7\xe5\xec\xf3 \xe2\xf1\xe5 \xe7\xe0\xe1\xfb\xeb\xe8 \xec\xee\xe9 \xec\xe8\xf0\\JamClub_Naze_Boku_no_Sekai_o_Dare_mo_Oboeteinai_no_ka_11_1080p.mp4" -lavfi "[0:v]settb=AVTB,setpts=PTS-STARTPTS,format=pix_fmts=yuv420p10,fps=24000/1001,scale=1920:1080:flags=bicubic[main];[1:v]settb=AVTB,setpts=PTS-STARTPTS,format=pix_fmts=yuv420p,fps=24000/1001,scale=1920:1080:flags=bicubic[ref];[main][ref]ssim=eof_action=endall:stats_file='D\\:/Convert/FFMetrics/logs/ssim_logfile-6.txt'" -f null -
Input #0, matroska,webm, from 'G:\Аниме\Онгоинги\!_35_Лето_2024\JamClub\Почему все забыли мой мир\JamClub_Naze_Boku_no_Sekai_o_Dare_mo_Oboeteinai_no_ka_11_1080p_HEVC.mkv':
  Metadata:
    COMPATIBLE_BRANDS: isomiso2avc1mp41
    MAJOR_BRAND     : isom
    MINOR_VERSION   : 512
    ENCODER         : Lavf61.7.100
  Duration: 00:24:02.33, start: -0.001000, bitrate: 1477 kb/s
  Stream #0:0: Video: hevc (Main 10), yuv420p10le(tv, bt709, progressive), 1920x1080 [SAR 1:1 DAR 16:9], 23.98 fps, 23.98 tbr, 1k tbn (default)
      Metadata:
        HANDLER_NAME    : VideoHandler
        VENDOR_ID       : [0][0][0][0]
        ENCODER         : Lavc61.19.100 libx265
        BPS             : 1279970
        DURATION        : 00:24:02.190708333
        NUMBER_OF_FRAMES: 34578
        NUMBER_OF_BYTES : 230745067
        _STATISTICS_WRITING_APP: mkvpropedit v66.0.0 ('Josie') 64-bit
        _STATISTICS_WRITING_DATE_UTC: 2025-04-30 13:08:10
        _STATISTICS_TAGS: BPS DURATION NUMBER_OF_FRAMES NUMBER_OF_BYTES
  Stream #0:1(eng): Audio: aac (LC), 48000 Hz, stereo, fltp (default)
      Metadata:
        HANDLER_NAME    : SoundHandler
        VENDOR_ID       : [0][0][0][0]
        ENCODER         : Lavc61.19.100 aac
        BPS             : 193485
        DURATION        : 00:24:02.285000000
        NUMBER_OF_FRAMES: 67608
        NUMBER_OF_BYTES : 34882604
        _STATISTICS_WRITING_APP: mkvpropedit v66.0.0 ('Josie') 64-bit
        _STATISTICS_WRITING_DATE_UTC: 2025-04-30 13:08:10
        _STATISTICS_TAGS: BPS DURATION NUMBER_OF_FRAMES NUMBER_OF_BYTES
Input #1, mov,mp4,m4a,3gp,3g2,mj2, from 'G:\Аниме\Онгоинги\!_35_Лето_2024\JamClub\Почему все забыли мой мир\JamClub_Naze_Boku_no_Sekai_o_Dare_mo_Oboeteinai_no_ka_11_1080p.mp4':
  Metadata:
    major_brand     : isom
    minor_version   : 512
    compatible_brands: isomiso2avc1mp41
    encoder         : Lavf60.16.100
  Duration: 00:24:02.31, start: 0.000000, bitrate: 4039 kb/s
  Stream #1:0[0x1](und): Video: h264 (High) (avc1 / 0x31637661), yuv420p(progressive), 1920x1080 [SAR 1:1 DAR 16:9], 3842 kb/s, 23.98 fps, 23.98 tbr, 90k tbn (default)
      Metadata:
        handler_name    : VideoHandler
        vendor_id       : [0][0][0][0]
  Stream #1:1[0x2](eng): Audio: aac (LC) (mp4a / 0x6134706D), 48000 Hz, stereo, fltp, 191 kb/s (default)
      Metadata:
        handler_name    : SoundHandler
        vendor_id       : [0][0][0][0]
Stream mapping:
  Stream #0:0 (hevc) -> settb:default
  Stream #1:0 (h264) -> settb:default
  ssim:default -> Stream #0:0 (wrapped_avframe)
  Stream #0:1 -> #0:1 (aac (native) -> pcm_s16le (native))
Output #0, null, to 'pipe:':
  Metadata:
    COMPATIBLE_BRANDS: isomiso2avc1mp41
    MAJOR_BRAND     : isom
    MINOR_VERSION   : 512
    encoder         : Lavf61.7.100
  Stream #0:0: Video: wrapped_avframe, yuv420p10le(tv, bt709, progressive), 1920x1080 [SAR 1:1 DAR 16:9], q=2-31, 200 kb/s, 23.98 fps, 23.98 tbn
      Metadata:
        encoder         : Lavc61.19.100 wrapped_avframe
  Stream #0:1(eng): Audio: pcm_s16le, 48000 Hz, stereo, s16, 1536 kb/s (default)
      Metadata:
        HANDLER_NAME    : SoundHandler
        VENDOR_ID       : [0][0][0][0]
        _STATISTICS_TAGS: BPS DURATION NUMBER_OF_FRAMES NUMBER_OF_BYTES
        BPS             : 193485
        DURATION        : 00:24:02.285000000
        NUMBER_OF_FRAMES: 67608
        NUMBER_OF_BYTES : 34882604
        _STATISTICS_WRITING_APP: mkvpropedit v66.0.0 ('Josie') 64-bit
        _STATISTICS_WRITING_DATE_UTC: 2025-04-30 13:08:10
        encoder         : Lavc61.19.100 pcm_s16le
frame=  117 fps=0.0 q=-0.0 size=N/A time=00:00:04.87 bitrate=N/A speed=9.38x    frame=  280 fps=273 q=-0.0 size=N/A time=00:00:11.67 bitrate=N/A speed=11.4x    frame=  488 fps=315 q=-0.0 size=N/A time=00:00:20.35 bitrate=N/A speed=13.1x    frame=  733 fps=356 q=-0.0 size=N/A time=00:00:30.57 bitrate=N/A speed=14.9x    frame=  962 fps=373 q=-0.0 size=N/A time=00:00:40.12 bitrate=N/A speed=15.5x    frame= 1175 fps=381 q=-0.0 size=N/A time=00:00:49.00 bitrate=N/A speed=15.9x    frame= 1426 fps=395 q=-0.0 size=N/A time=00:00:59.47 bitrate=N/A speed=16.5x    frame= 1670 fps=406 q=-0.0 size=N/A time=00:01:09.65 bitrate=N/A speed=16.9x    frame= 1894 fps=408 q=-0.0 size=N/A time=00:01:18.99 bitrate=N/A speed=  17x    frame= 2064 fps=400 q=-0.0 size=N/A time=00:01:26.08 bitrate=N/A speed=16.7x    frame= 2239 fps=395 q=-0.0 size=N/A time=00:01:33.38 bitrate=N/A speed=16.5x    frame= 2455 fps=397 q=-0.0 size=N/A time=00:01:42.39 bitrate=N/A speed=16.5x    frame= 2648 fps=395 q=-0.0 size=N/A time=00:01:50.44 bitrate=N/A speed=16.5x    frame= 2827 fps=391 q=-0.0 size=N/A time=00:01:57.90 bitrate=N/A speed=16.3x    frame= 3033 fps=392 q=-0.0 size=N/A time=00:02:06.50 bitrate=N/A speed=16.4x    frame= 3202 fps=388 q=-0.0 size=N/A time=00:02:13.55 bitrate=N/A speed=16.2x    frame= 3374 fps=385 q=-0.0 size=N/A time=00:02:20.72 bitrate=N/A speed=16.1x    frame= 3551 fps=383 q=-0.0 size=N/A time=00:02:28.10 bitrate=N/A speed=  16x    frame= 3726 fps=381 q=-0.0 size=N/A time=00:02:35.40 bitrate=N/A speed=15.9x    frame= 3922 fps=380 q=-0.0 size=N/A time=00:02:43.58 bitrate=N/A speed=15.9x    frame= 4159 fps=384 q=-0.0 size=N/A time=00:02:53.46 bitrate=N/A speed=  16x    frame= 4377 fps=386 q=-0.0 size=N/A time=00:03:02.55 bitrate=N/A speed=16.1x    frame= 4620 fps=390 q=-0.0 size=N/A time=00:03:12.69 bitrate=N/A speed=16.3x    frame= 4842 fps=391 q=-0.0 size=N/A time=00:03:21.95 bitrate=N/A speed=16.3x    frame= 5056 fps=393 q=-0.0 size=N/A time=00:03:30.87 bitrate=N/A speed=16.4x    frame= 5298 fps=395 q=-0.0 size=N/A time=00:03:40.97 bitrate=N/A speed=16.5x    frame= 5509 fps=396 q=-0.0 size=N/A time=00:03:49.77 bitrate=N/A speed=16.5x    frame= 5727 fps=397 q=-0.0 size=N/A time=00:03:58.86 bitrate=N/A speed=16.5x    frame= 5990 fps=401 q=-0.0 size=N/A time=00:04:09.83 bitrate=N/A speed=16.7x    frame= 6226 fps=402 q=-0.0 size=N/A time=00:04:19.67 bitrate=N/A speed=16.8x    frame= 6487 fps=406 q=-0.0 size=N/A time=00:04:30.56 bitrate=N/A speed=16.9x    frame= 6724 fps=408 q=-0.0 size=N/A time=00:04:40.44 bitrate=N/A speed=  17x    frame= 6998 fps=411 q=-0.0 size=N/A time=00:04:51.87 bitrate=N/A speed=17.2x    frame= 7268 fps=414 q=-0.0 size=N/A time=00:05:03.13 bitrate=N/A speed=17.3x    frame= 7524 fps=417 q=-0.0 size=N/A time=00:05:13.81 bitrate=N/A speed=17.4x    frame= 7788 fps=420 q=-0.0 size=N/A time=00:05:24.82 bitrate=N/A speed=17.5x    frame= 8023 fps=421 q=-0.0 size=N/A time=00:05:34.62 bitrate=N/A speed=17.5x    frame= 8205 fps=419 q=-0.0 size=N/A time=00:05:42.21 bitrate=N/A speed=17.5x    frame= 8474 fps=421 q=-0.0 size=N/A time=00:05:53.43 bitrate=N/A speed=17.6x    frame= 8706 fps=422 q=-0.0 size=N/A time=00:06:03.11 bitrate=N/A speed=17.6x    frame= 8970 fps=424 q=-0.0 size=N/A time=00:06:14.12 bitrate=N/A speed=17.7x    frame= 9193 fps=424 q=-0.0 size=N/A time=00:06:23.42 bitrate=N/A speed=17.7x    frame= 9441 fps=426 q=-0.0 size=N/A time=00:06:33.76 bitrate=N/A speed=17.8x    frame= 9707 fps=428 q=-0.0 size=N/A time=00:06:44.86 bitrate=N/A speed=17.8x    frame= 9962 fps=429 q=-0.0 size=N/A time=00:06:55.49 bitrate=N/A speed=17.9x    frame=10226 fps=431 q=-0.0 size=N/A time=00:07:06.50 bitrate=N/A speed=  18x    frame=10497 fps=433 q=-0.0 size=N/A time=00:07:17.81 bitrate=N/A speed=18.1x    frame=10730 fps=433 q=-0.0 size=N/A time=00:07:27.53 bitrate=N/A speed=18.1x    frame=10957 fps=434 q=-0.0 size=N/A time=00:07:36.99 bitrate=N/A speed=18.1x    frame=11206 fps=435 q=-0.0 size=N/A time=00:07:47.38 bitrate=N/A speed=18.1x    frame=11451 fps=435 q=-0.0 size=N/A time=00:07:57.60 bitrate=N/A speed=18.2x    frame=11710 fps=437 q=-0.0 size=N/A time=00:08:08.40 bitrate=N/A speed=18.2x    frame=11961 fps=438 q=-0.0 size=N/A time=00:08:18.87 bitrate=N/A speed=18.3x    frame=12210 fps=439 q=-0.0 size=N/A time=00:08:29.25 bitrate=N/A speed=18.3x    frame=12480 fps=440 q=-0.0 size=N/A time=00:08:40.52 bitrate=N/A speed=18.4x    frame=12754 fps=442 q=-0.0 size=N/A time=00:08:51.94 bitrate=N/A speed=18.4x    frame=13030 fps=443 q=-0.0 size=N/A time=00:09:03.45 bitrate=N/A speed=18.5x    frame=13316 fps=445 q=-0.0 size=N/A time=00:09:15.38 bitrate=N/A speed=18.6x    frame=13606 fps=447 q=-0.0 size=N/A time=00:09:27.48 bitrate=N/A speed=18.7x    frame=13869 fps=448 q=-0.0 size=N/A time=00:09:38.45 bitrate=N/A speed=18.7x    frame=14142 fps=450 q=-0.0 size=N/A time=00:09:49.83 bitrate=N/A speed=18.8x    frame=14417 fps=451 q=-0.0 size=N/A time=00:10:01.30 bitrate=N/A speed=18.8x    frame=14693 fps=452 q=-0.0 size=N/A time=00:10:12.82 bitrate=N/A speed=18.9x    frame=14985 fps=454 q=-0.0 size=N/A time=00:10:24.99 bitrate=N/A speed=18.9x    frame=15256 fps=455 q=-0.0 size=N/A time=00:10:36.30 bitrate=N/A speed=  19x    frame=15536 fps=456 q=-0.0 size=N/A time=00:10:47.98 bitrate=N/A speed=  19x    frame=15764 fps=456 q=-0.0 size=N/A time=00:10:57.49 bitrate=N/A speed=  19x    frame=15998 fps=456 q=-0.0 size=N/A time=00:11:07.24 bitrate=N/A speed=  19x    frame=16253 fps=457 q=-0.0 size=N/A time=00:11:17.88 bitrate=N/A speed=19.1x    frame=16487 fps=457 q=-0.0 size=N/A time=00:11:27.64 bitrate=N/A speed=19.1x    frame=16728 fps=457 q=-0.0 size=N/A time=00:11:37.69 bitrate=N/A speed=19.1x    frame=16994 fps=458 q=-0.0 size=N/A time=00:11:48.79 bitrate=N/A speed=19.1x    frame=17203 fps=457 q=-0.0 size=N/A time=00:11:57.50 bitrate=N/A speed=19.1x    frame=17442 fps=457 q=-0.0 size=N/A time=00:12:07.47 bitrate=N/A speed=19.1x    frame=17665 fps=457 q=-0.0 size=N/A time=00:12:16.77 bitrate=N/A speed=19.1x    frame=17861 fps=456 q=-0.0 size=N/A time=00:12:24.95 bitrate=N/A speed=  19x    frame=18024 fps=454 q=-0.0 size=N/A time=00:12:31.75 bitrate=N/A speed=18.9x    frame=18266 fps=454 q=-0.0 size=N/A time=00:12:41.84 bitrate=N/A speed=18.9x    frame=18511 fps=454 q=-0.0 size=N/A time=00:12:52.06 bitrate=N/A speed=  19x    frame=18792 fps=456 q=-0.0 size=N/A time=00:13:03.78 bitrate=N/A speed=  19x    frame=19070 fps=457 q=-0.0 size=N/A time=00:13:15.37 bitrate=N/A speed=  19x    frame=19308 fps=457 q=-0.0 size=N/A time=00:13:25.30 bitrate=N/A speed=  19x    frame=19565 fps=457 q=-0.0 size=N/A time=00:13:36.02 bitrate=N/A speed=19.1x    frame=19782 fps=457 q=-0.0 size=N/A time=00:13:45.07 bitrate=N/A speed=19.1x    frame=20054 fps=458 q=-0.0 size=N/A time=00:13:56.41 bitrate=N/A speed=19.1x    frame=20307 fps=458 q=-0.0 size=N/A time=00:14:06.97 bitrate=N/A speed=19.1x    frame=20547 fps=458 q=-0.0 size=N/A time=00:14:16.98 bitrate=N/A speed=19.1x    frame=20762 fps=458 q=-0.0 size=N/A time=00:14:25.94 bitrate=N/A speed=19.1x    frame=21014 fps=458 q=-0.0 size=N/A time=00:14:36.45 bitrate=N/A speed=19.1x    frame=21247 fps=458 q=-0.0 size=N/A time=00:14:46.17 bitrate=N/A speed=19.1x    frame=21498 fps=458 q=-0.0 size=N/A time=00:14:56.64 bitrate=N/A speed=19.1x    frame=21789 fps=459 q=-0.0 size=N/A time=00:15:08.78 bitrate=N/A speed=19.2x    frame=22017 fps=459 q=-0.0 size=N/A time=00:15:18.29 bitrate=N/A speed=19.1x    frame=22277 fps=460 q=-0.0 size=N/A time=00:15:29.13 bitrate=N/A speed=19.2x    frame=22498 fps=459 q=-0.0 size=N/A time=00:15:38.35 bitrate=N/A speed=19.2x    frame=22719 fps=459 q=-0.0 size=N/A time=00:15:47.57 bitrate=N/A speed=19.1x    frame=23001 fps=460 q=-0.0 size=N/A time=00:15:59.33 bitrate=N/A speed=19.2x    frame=23281 fps=461 q=-0.0 size=N/A time=00:16:11.01 bitrate=N/A speed=19.2x    frame=23524 fps=461 q=-0.0 size=N/A time=00:16:21.14 bitrate=N/A speed=19.2x    frame=23783 fps=461 q=-0.0 size=N/A time=00:16:31.94 bitrate=N/A speed=19.2x    frame=24046 fps=462 q=-0.0 size=N/A time=00:16:42.91 bitrate=N/A speed=19.3x    frame=24333 fps=463 q=-0.0 size=N/A time=00:16:54.88 bitrate=N/A speed=19.3x    frame=24596 fps=463 q=-0.0 size=N/A time=00:17:05.85 bitrate=N/A speed=19.3x    frame=24855 fps=464 q=-0.0 size=N/A time=00:17:16.66 bitrate=N/A speed=19.3x    frame=25056 fps=463 q=-0.0 size=N/A time=00:17:25.04 bitrate=N/A speed=19.3x    frame=25289 fps=463 q=-0.0 size=N/A time=00:17:34.76 bitrate=N/A speed=19.3x    frame=25539 fps=463 q=-0.0 size=N/A time=00:17:45.18 bitrate=N/A speed=19.3x    frame=25780 fps=463 q=-0.0 size=N/A time=00:17:55.24 bitrate=N/A speed=19.3x    frame=26046 fps=463 q=-0.0 size=N/A time=00:18:06.33 bitrate=N/A speed=19.3x    frame=26248 fps=463 q=-0.0 size=N/A time=00:18:14.76 bitrate=N/A speed=19.3x    frame=26434 fps=462 q=-0.0 size=N/A time=00:18:22.51 bitrate=N/A speed=19.3x    frame=26657 fps=462 q=-0.0 size=N/A time=00:18:31.81 bitrate=N/A speed=19.3x    frame=26829 fps=460 q=-0.0 size=N/A time=00:18:38.99 bitrate=N/A speed=19.2x    frame=27075 fps=461 q=-0.0 size=N/A time=00:18:49.25 bitrate=N/A speed=19.2x    frame=27369 fps=462 q=-0.0 size=N/A time=00:19:01.55 bitrate=N/A speed=19.3x    frame=27622 fps=462 q=-0.0 size=N/A time=00:19:12.06 bitrate=N/A speed=19.3x    frame=27866 fps=462 q=-0.0 size=N/A time=00:19:22.24 bitrate=N/A speed=19.3x    frame=28130 fps=462 q=-0.0 size=N/A time=00:19:33.25 bitrate=N/A speed=19.3x    frame=28386 fps=463 q=-0.0 size=N/A time=00:19:43.93 bitrate=N/A speed=19.3x    frame=28639 fps=463 q=-0.0 size=N/A time=00:19:54.48 bitrate=N/A speed=19.3x    frame=28846 fps=462 q=-0.0 size=N/A time=00:20:03.11 bitrate=N/A speed=19.3x    frame=29063 fps=462 q=-0.0 size=N/A time=00:20:12.16 bitrate=N/A speed=19.3x    frame=29222 fps=461 q=-0.0 size=N/A time=00:20:18.80 bitrate=N/A speed=19.2x    frame=29469 fps=461 q=-0.0 size=N/A time=00:20:29.10 bitrate=N/A speed=19.2x    frame=29691 fps=461 q=-0.0 size=N/A time=00:20:38.36 bitrate=N/A speed=19.2x    frame=29927 fps=461 q=-0.0 size=N/A time=00:20:48.20 bitrate=N/A speed=19.2x    frame=30146 fps=460 q=-0.0 size=N/A time=00:20:57.33 bitrate=N/A speed=19.2x    frame=30393 fps=460 q=-0.0 size=N/A time=00:21:07.64 bitrate=N/A speed=19.2x    frame=30643 fps=461 q=-0.0 size=N/A time=00:21:18.06 bitrate=N/A speed=19.2x    frame=30896 fps=461 q=-0.0 size=N/A time=00:21:28.62 bitrate=N/A speed=19.2x    frame=31155 fps=461 q=-0.0 size=N/A time=00:21:39.42 bitrate=N/A speed=19.2x    frame=31429 fps=462 q=-0.0 size=N/A time=00:21:50.85 bitrate=N/A speed=19.2x    frame=31651 fps=461 q=-0.0 size=N/A time=00:22:00.11 bitrate=N/A speed=19.2x    frame=31901 fps=461 q=-0.0 size=N/A time=00:22:10.53 bitrate=N/A speed=19.2x    frame=32170 fps=462 q=-0.0 size=N/A time=00:22:21.75 bitrate=N/A speed=19.3x    frame=32438 fps=462 q=-0.0 size=N/A time=00:22:32.93 bitrate=N/A speed=19.3x    frame=32700 fps=463 q=-0.0 size=N/A time=00:22:43.86 bitrate=N/A speed=19.3x    frame=32934 fps=463 q=-0.0 size=N/A time=00:22:53.62 bitrate=N/A speed=19.3x    frame=33164 fps=462 q=-0.0 size=N/A time=00:23:03.21 bitrate=N/A speed=19.3x    frame=33377 fps=462 q=-0.0 size=N/A time=00:23:12.09 bitrate=N/A speed=19.3x    frame=33543 fps=461 q=-0.0 size=N/A time=00:23:19.02 bitrate=N/A speed=19.2x    frame=33693 fps=460 q=-0.0 size=N/A time=00:23:25.27 bitrate=N/A speed=19.2x    frame=33863 fps=459 q=-0.0 size=N/A time=00:23:32.36 bitrate=N/A speed=19.1x    frame=34042 fps=458 q=-0.0 size=N/A time=00:23:39.83 bitrate=N/A speed=19.1x    frame=34224 fps=458 q=-0.0 size=N/A time=00:23:47.42 bitrate=N/A speed=19.1x    frame=34391 fps=457 q=-0.0 size=N/A time=00:23:54.39 bitrate=N/A speed=  19x    [Parsed_ssim_10 @ 0000025adf0f4cc0] SSIM Y:0.994258 (22.409484) U:0.993100 (21.611229) V:0.993581 (21.925037) All:0.993952 (22.183971)
[out#0/null @ 0000025ad309c100] video:14858KiB audio:270432KiB subtitle:0KiB other streams:0KiB global headers:0KiB muxing overhead: unknown
frame=34578 fps=456 q=-0.0 Lsize=N/A time=00:24:02.19 bitrate=N/A speed=  19x    
